<svg id="SvgjsSvg1084" width="288" height="288" xmlns="http://www.w3.org/2000/svg" version="1.1" xmlns:xlink="http://www.w3.org/1999/xlink" xmlns:svgjs="http://svgjs.com/svgjs"><defs id="SvgjsDefs1085"></defs><g id="SvgjsG1086"><svg xmlns="http://www.w3.org/2000/svg" data-name="Layer 1" viewBox="0 0 64 64" width="288" height="288"><path d="M42,55H37a1,1,0,0,0-1,1v5h2V58.41l3.29,3.3,1.42-1.42L39.41,57H42Z" fill="#144b9d" class="color000 svgShape"></path><path d="M62.49,25.13l-9-5a1,1,0,0,0-1,0l-5.66,3.14-6.56-3.73,1.2-.67A1,1,0,0,0,42,18V8h0a1,1,0,0,0-.51-.87l-9-5a1,1,0,0,0-1,0l-9,5A1,1,0,0,0,22,8h0V18a1,1,0,0,0,.51.87l1.2.67-6.56,3.73-5.66-3.14a1,1,0,0,0-1,0l-9,5A1,1,0,0,0,1,26H1V36a1,1,0,0,0,.51.87l9,5a1,1,0,0,0,1,0l2.1-1.16L22,45.48V60a1,1,0,0,0,1,1H34V59H24V43H40V53h2V45.48l8.41-4.77,2.1,1.16a1,1,0,0,0,1,0l9-5A1,1,0,0,0,63,36V26h0A1,1,0,0,0,62.49,25.13ZM32,4.14,38.94,8,32,11.86,25.06,8ZM40,9.7v7.71L33,21.3V13.59Zm-16,0,7,3.89V21.3l-7-3.89ZM10,39.3,3,35.41V27.7l7,3.89Zm1-9.44L4.06,26,11,22.14,17.94,26Zm1,9.44V31.59l7-3.89v7.71Zm30,3.88V42a1,1,0,0,0-1-1H23a1,1,0,0,0-1,1v1.18l-6.37-3.61,4.86-2.7A1,1,0,0,0,21,36V26h0a1,1,0,0,0-.51-.87l-1.3-.72,6.57-3.73,5.75,3.19a1,1,0,0,0,1,0l5.75-3.19,6.57,3.73-1.3.72A1,1,0,0,0,43,26h0V36a1,1,0,0,0,.51.87l4.86,2.7ZM52,39.3l-7-3.89V27.7l7,3.89Zm1-9.44L46.06,26,53,22.14,59.94,26Zm8,5.55L54,39.3V31.59l7-3.89Z" fill="#144b9d" class="color000 svgShape"></path></svg></g></svg>